<svg xmlns="http://www.w3.org/2000/svg" width="154" height="72" viewBox="0 0 154 72" fill="none"><path d="M27.7024 7.02783C26.0869 7.02783 24.9797 8.6563 25.5739 10.1586L46.4091 62.84C46.7546 63.7134 47.5985 64.2871 48.5377 64.2871C50.1533 64.2871 51.2604 62.6586 50.6662 61.1563L29.831 8.47498C29.4856 7.60159 28.6417 7.02783 27.7024 7.02783Z" fill="#E65332"></path><path d="M37.6354 7.02783C36.0087 7.02783 34.894 8.66745 35.4922 10.1801L56.3188 62.8394C56.6644 63.7131 57.5086 64.2871 58.4482 64.2871C60.0639 64.2871 61.1714 62.659 60.578 61.1562L39.7789 8.486C39.4314 7.60604 38.5815 7.02783 37.6354 7.02783Z" fill="#E65332"></path><path d="M16.6578 63.057C17.0058 63.9384 17.8572 64.5175 18.8048 64.5175C20.4326 64.5175 21.549 62.8778 20.9523 61.3632L15.9535 48.6747C15.1773 46.7045 12.3788 46.7194 11.6331 48.7014C11.431 49.2386 11.4359 49.8317 11.6466 50.3656L16.6578 63.057Z" fill="#E65332"></path><path d="M36.4733 63.0659C36.8194 63.9419 37.6656 64.5175 38.6075 64.5175C40.2264 64.5175 41.3363 62.8861 40.7418 61.3803L25.7327 23.3611C24.9845 21.4661 22.3235 21.4086 21.4943 23.2695C21.2428 23.8338 21.2291 24.4754 21.456 25.05L36.4733 63.0659Z" fill="#E65332"></path><path d="M16.5049 37.5774L26.5437 63.0591C26.8904 63.9391 27.74 64.5175 28.6858 64.5175C30.3101 64.5175 31.4237 62.8807 30.8272 61.3698L20.7701 35.8953C20.0026 33.9512 17.2466 33.9643 16.4976 35.9157C16.2922 36.451 16.2948 37.0439 16.5049 37.5774Z" fill="#E65332"></path><path d="M86.952 42.384V45H74.352V28.2H86.616V30.816H77.472V35.184H85.584V37.752H77.472V42.384H86.952ZM102.694 45V36.504L98.3741 43.656H97.0781L92.8301 36.48V45H90.0941V32.184H93.2381L97.7981 40.2L102.574 32.184H105.382L105.406 45H102.694ZM121.43 38.664C121.43 38.872 121.414 39.168 121.382 39.552H111.326C111.502 40.496 111.958 41.248 112.694 41.808C113.446 42.352 114.374 42.624 115.478 42.624C116.886 42.624 118.046 42.16 118.958 41.232L120.566 43.08C119.99 43.768 119.262 44.288 118.382 44.64C117.502 44.992 116.51 45.168 115.406 45.168C113.998 45.168 112.758 44.888 111.686 44.328C110.614 43.768 109.782 42.992 109.19 42C108.614 40.992 108.326 39.856 108.326 38.592C108.326 37.344 108.606 36.224 109.166 35.232C109.742 34.224 110.534 33.44 111.542 32.88C112.55 32.32 113.686 32.04 114.95 32.04C116.198 32.04 117.31 32.32 118.286 32.88C119.278 33.424 120.046 34.2 120.59 35.208C121.15 36.2 121.43 37.352 121.43 38.664ZM114.95 34.44C113.99 34.44 113.174 34.728 112.502 35.304C111.846 35.864 111.446 36.616 111.302 37.56H118.574C118.446 36.632 118.054 35.88 117.398 35.304C116.742 34.728 115.926 34.44 114.95 34.44ZM136.163 32.184V45H133.163V34.728H128.363L128.243 37.272C128.163 38.968 128.003 40.392 127.763 41.544C127.539 42.68 127.147 43.584 126.587 44.256C126.043 44.912 125.291 45.24 124.331 45.24C123.883 45.24 123.331 45.152 122.675 44.976L122.819 42.456C123.043 42.504 123.235 42.528 123.395 42.528C124.003 42.528 124.459 42.288 124.763 41.808C125.067 41.312 125.259 40.728 125.339 40.056C125.435 39.368 125.515 38.392 125.579 37.128L125.795 32.184H136.163ZM151.028 32.184V45H148.34V41.136H144.956L142.34 45H139.124L142.148 40.728C141.22 40.408 140.508 39.92 140.012 39.264C139.532 38.592 139.292 37.768 139.292 36.792C139.292 35.32 139.812 34.184 140.852 33.384C141.892 32.584 143.324 32.184 145.148 32.184H151.028ZM145.243 34.704C143.308 34.704 142.34 35.432 142.34 36.888C142.34 38.328 143.276 39.048 145.148 39.048H148.34V34.704H145.243Z" fill="white"></path></svg>